<svg width="80" height="80" viewBox="0 0 120 120" fill="none" xmlns="http://www.w3.org/2000/svg">
<path d="M72.7588 5.37207H20.8034C6.9776 5.37207 0 12.0833 0 25.3766V96.5222C0 98.2647 0.935927 99.3376 2.95235 99.3376H18.6577C20.5371 99.3376 21.747 98.2647 21.747 96.5222V93.821C21.747 87.2314 24.5243 83.6399 31.4258 82.9475H72.7588C87.9239 82.9475 94.7721 76.3731 94.7721 62.0071V26.3125C94.7721 11.9464 87.9239 5.37207 72.7588 5.37207ZM73.0479 55.9654C73.0479 63.7572 71.2826 65.3627 62.0147 65.3627H40.0014C30.741 65.3627 24.8287 68.452 21.7394 74.4937V30.6117C21.7394 24.57 23.2155 22.9568 30.5964 22.9568H62.0147C71.2826 22.9568 73.0479 24.57 73.0479 32.3542V55.9654Z" fill="#8257E5"/>
</svg>
